<svg xmlns="http://www.w3.org/2000/svg" xmlns:xlink="http://www.w3.org/1999/xlink" width="275.645" height="43.534" viewBox="0 0 275.645 43.534">
  <defs>
    <clipPath id="clip-path">
      <rect id="사각형_4554" data-name="사각형 4554" width="275.645" height="43.534" fill="none"/>
    </clipPath>
  </defs>
  <g id="그룹_3668" data-name="그룹 3668" transform="translate(0 -0.001)">
    <g id="그룹_3667" data-name="그룹 3667" transform="translate(0 0.001)" clip-path="url(#clip-path)">
      <path id="패스_2064" data-name="패스 2064" d="M22.2,25.711c-.623-5.659,5.311-10.2,13.248-10.139s14.882,4.7,15.5,10.353-5.3,10.2-13.246,10.135S22.824,31.366,22.2,25.711m30.229,1.754c-.718-7.018-8.706-12.764-17.845-12.84s-15.969,5.553-15.252,12.57S28.042,39.963,37.183,40.04s15.969-5.553,15.248-12.575" transform="translate(-4.475 -3.395)" fill="#fbb584"/>
      <path id="패스_2065" data-name="패스 2065" d="M38.24,41.9c-4.5,4.709-11.727,5.1-16.138.875s-4.336-11.456.169-16.161S34,21.526,38.407,25.745,42.744,37.2,38.24,41.9M21.562,26.468c-5.232,5.466-5.316,13.874-.194,18.782S34.9,49.7,40.127,44.237s5.322-13.874.192-18.781S26.794,21,21.562,26.468" transform="translate(-4.081 -5.118)" fill="#f89b6c"/>
      <path id="패스_2066" data-name="패스 2066" d="M17.961,3.747c9.362-3.507,18.62.04,20.677,7.924S34.776,28.8,25.413,32.3,6.791,32.268,4.735,24.379,8.6,7.257,17.961,3.747m-8.7,3.013C-.448,14.45-2.92,25.6,3.741,31.647s19.937,4.728,29.652-2.963S45.582,9.854,38.916,3.8,18.977-.931,9.264,6.761" transform="translate(0 0)" fill="#f37321"/>
      <path id="패스_2067" data-name="패스 2067" d="M86.27,18.1V35.162H83.6v-9H73.485v9H70.812V18.1h2.673v5.724H83.6V18.1Z" transform="translate(-16.435 -4.201)" fill="#fff"/>
      <path id="패스_2068" data-name="패스 2068" d="M98,36.441a4.012,4.012,0,0,1-2.962-1.047,3.452,3.452,0,0,1-1.114-2.7v-.913a3.527,3.527,0,0,1,1.114-2.717A4.023,4.023,0,0,1,98,28h6.973v-.067c0-1.358-.758-2.05-2.25-2.05H94.971V23.611h7.707a5.153,5.153,0,0,1,3.675,1.226,4.5,4.5,0,0,1,1.292,3.43v4.521a3.425,3.425,0,0,1-1.18,2.74,4.414,4.414,0,0,1-3.007.913Zm4.878-6.169H98.646c-1.381,0-2.049.579-2.049,1.737v.423c0,1.158.668,1.715,2.049,1.715h4.233c1.381,0,2.094-.557,2.094-1.715v-.423c0-1.158-.713-1.737-2.094-1.737" transform="translate(-21.799 -5.48)" fill="#fff"/>
      <path id="패스_2069" data-name="패스 2069" d="M120.3,23.611h2.629a5.317,5.317,0,0,1,3.92,1.448,5.6,5.6,0,0,1,1.426,4.031v7.35H125.6V29.224a3.674,3.674,0,0,0-.623-2.338,2.8,2.8,0,0,0-2.25-.958h-2.272a2.779,2.779,0,0,0-2.227.958,3.681,3.681,0,0,0-.58,2.338v7.217h-2.673v-7.35a5.5,5.5,0,0,1,1.426-4.031,5.228,5.228,0,0,1,3.9-1.448" transform="translate(-26.686 -5.48)" fill="#fff"/>
      <path id="패스_2070" data-name="패스 2070" d="M145.258,34.726a4.4,4.4,0,0,1-3.542,1.715h-1.649a4.6,4.6,0,0,1-3.542-1.4,5.112,5.112,0,0,1-1.247-3.719V23.611h2.65v7.73a2.93,2.93,0,0,0,.6,2.05,2.322,2.322,0,0,0,1.8.735h1.159a2.4,2.4,0,0,0,1.826-.735,2.925,2.925,0,0,0,.624-2.05v-7.73h2.629v7.73a2.926,2.926,0,0,0,.6,2.05,2.32,2.32,0,0,0,1.8.735h1.159a2.4,2.4,0,0,0,1.825-.735,2.922,2.922,0,0,0,.624-2.05v-7.73h2.651v7.708a5.136,5.136,0,0,1-1.292,3.719,4.681,4.681,0,0,1-3.565,1.4h-1.626a4.319,4.319,0,0,1-3.5-1.715" transform="translate(-31.398 -5.48)" fill="#fff"/>
      <path id="패스_2071" data-name="패스 2071" d="M169.759,24.635a2.781,2.781,0,0,0-2.227.958,3.683,3.683,0,0,0-.58,2.338v7.217h-2.673V18.042h2.673V23.1a4.64,4.64,0,0,1,2.651-.78h2.629a5.316,5.316,0,0,1,3.92,1.448,5.6,5.6,0,0,1,1.426,4.031v7.35H174.9V27.932a3.67,3.67,0,0,0-.624-2.338,2.8,2.8,0,0,0-2.249-.958Z" transform="translate(-38.128 -4.188)" fill="#fff"/>
      <path id="패스_2072" data-name="패스 2072" d="M188.48,36.441a4.015,4.015,0,0,1-2.963-1.047,3.454,3.454,0,0,1-1.113-2.7v-.913a3.529,3.529,0,0,1,1.113-2.717A4.027,4.027,0,0,1,188.48,28h6.973v-.067c0-1.358-.758-2.05-2.25-2.05h-7.752V23.611h7.707a5.153,5.153,0,0,1,3.675,1.226,4.5,4.5,0,0,1,1.292,3.43v4.521a3.425,3.425,0,0,1-1.18,2.74,4.414,4.414,0,0,1-3.007.913Zm4.878-6.169h-4.233c-1.381,0-2.049.579-2.049,1.737v.423c0,1.158.668,1.715,2.049,1.715h4.233c1.381,0,2.094-.557,2.094-1.715v-.423c0-1.158-.713-1.737-2.094-1.737" transform="translate(-42.799 -5.48)" fill="#fff"/>
      <path id="패스_2073" data-name="패스 2073" d="M228.187,18.1v2.317h-9.2c-1.693,0-2.539.645-2.539,1.915v1.159c0,1.269.825,1.893,2.517,1.893h4.945a5.563,5.563,0,0,1,3.743,1.114,3.812,3.812,0,0,1,1.336,3.007v1.581a3.738,3.738,0,0,1-1.336,2.985,5.586,5.586,0,0,1-3.765,1.091H214.4V32.845h9.355c1.693,0,2.539-.624,2.539-1.894V29.594c0-1.271-.846-1.916-2.539-1.916h-4.945a5.481,5.481,0,0,1-3.742-1.091,3.719,3.719,0,0,1-1.314-2.986V22.221a3.793,3.793,0,0,1,1.314-3.007,5.481,5.481,0,0,1,3.742-1.113Z" transform="translate(-49.611 -4.201)" fill="#fff"/>
      <path id="패스_2074" data-name="패스 2074" d="M249.961,23.611V36.42a4.343,4.343,0,0,1-1.248,3.407,5.137,5.137,0,0,1-3.72,1.18h-7.551V38.691h7.6c1.492,0,2.25-.646,2.25-1.982v-.892a3.776,3.776,0,0,1-2.428.624h-3.1a4.99,4.99,0,0,1-3.742-1.381,5.1,5.1,0,0,1-1.358-3.831V23.611h2.672v7.462a3.675,3.675,0,0,0,.534,2.183,2.451,2.451,0,0,0,2.073.868h2.695a2.5,2.5,0,0,0,2.094-.868,3.66,3.66,0,0,0,.557-2.183V23.611Z" transform="translate(-54.928 -5.48)" fill="#fff"/>
      <path id="패스_2075" data-name="패스 2075" d="M265.608,28.89a5.865,5.865,0,0,1,3.163.668,2.976,2.976,0,0,1,1.269,2.651v.958a2.911,2.911,0,0,1-1.269,2.629,5.926,5.926,0,0,1-3.185.646h-8.509V34.124h8.509c1.158,0,1.76-.4,1.76-1.2V32.41c0-.8-.6-1.226-1.76-1.226h-4.41a5.792,5.792,0,0,1-3.141-.646,2.9,2.9,0,0,1-1.248-2.628V26.93a2.936,2.936,0,0,1,1.248-2.651,5.776,5.776,0,0,1,3.141-.668h8.152v2.317h-8.108c-1.158,0-1.738.423-1.738,1.225v.535c0,.8.557,1.2,1.716,1.2Z" transform="translate(-59.599 -5.48)" fill="#fff"/>
      <path id="패스_2076" data-name="패스 2076" d="M282.69,22.736H286.7v2.25H282.69v10.58h-2.7V24.986h-4.008v-2.25h4.008v-2.9h2.7Z" transform="translate(-64.055 -4.605)" fill="#fff"/>
      <path id="패스_2077" data-name="패스 2077" d="M305.889,27.4v.891a3.467,3.467,0,0,1-1.137,2.7,4.05,4.05,0,0,1-2.962,1.047h-6.95v.089c0,1.359.736,2.027,2.25,2.027h8.2v2.294h-8.175a5.141,5.141,0,0,1-3.675-1.2,4.4,4.4,0,0,1-1.269-3.408V27.4a3.528,3.528,0,0,1,1.113-2.718,4.046,4.046,0,0,1,2.985-1.07h5.5a4.117,4.117,0,0,1,2.984,1.07,3.546,3.546,0,0,1,1.137,2.718m-9,2.361h4.254c1.381,0,2.072-.557,2.072-1.715v-.423q0-1.738-2.072-1.738H296.89c-1.381,0-2.049.579-2.049,1.738v.423c0,1.158.668,1.715,2.049,1.715" transform="translate(-67.811 -5.48)" fill="#fff"/>
      <path id="패스_2078" data-name="패스 2078" d="M322.911,25.326a4.384,4.384,0,0,1,3.5-1.715h1.626a4.681,4.681,0,0,1,3.565,1.4,5.171,5.171,0,0,1,1.292,3.719v7.707h-2.651v-7.73a2.959,2.959,0,0,0-.624-2.049,2.4,2.4,0,0,0-1.825-.736h-1.159a2.318,2.318,0,0,0-1.8.736,2.963,2.963,0,0,0-.6,2.049v7.73H321.6v-7.73a2.963,2.963,0,0,0-.624-2.049,2.4,2.4,0,0,0-1.826-.736h-1.159a2.32,2.32,0,0,0-1.8.736,2.967,2.967,0,0,0-.6,2.049v7.73h-2.65V28.734a5.146,5.146,0,0,1,1.247-3.719,4.6,4.6,0,0,1,3.542-1.4h1.649a4.471,4.471,0,0,1,3.542,1.715" transform="translate(-72.63 -5.48)" fill="#fff"/>
      <path id="패스_2079" data-name="패스 2079" d="M350.519,28.89a5.865,5.865,0,0,1,3.163.668,2.976,2.976,0,0,1,1.269,2.651v.958a2.911,2.911,0,0,1-1.269,2.629,5.926,5.926,0,0,1-3.185.646h-8.508V34.124H350.5c1.158,0,1.76-.4,1.76-1.2V32.41c0-.8-.6-1.226-1.76-1.226h-4.41a5.792,5.792,0,0,1-3.141-.646A2.9,2.9,0,0,1,341.7,27.91V26.93a2.936,2.936,0,0,1,1.248-2.651,5.776,5.776,0,0,1,3.141-.668h8.152v2.317H346.13c-1.158,0-1.738.423-1.738,1.225v.535c0,.8.558,1.2,1.716,1.2Z" transform="translate(-79.307 -5.48)" fill="#fff"/>
    </g>
  </g>
</svg>
